<svg xmlns="http://www.w3.org/2000/svg" xmlns:xlink="http://www.w3.org/1999/xlink" width="500" zoomAndPan="magnify" viewBox="0 0 375 374.999991" height="500" preserveAspectRatio="xMidYMid meet" version="1.0"><defs><g/><clipPath id="f8dab7e527"><path d="M 82 313 L 124 313 L 124 345.941406 L 82 345.941406 Z M 82 313 " clip-rule="nonzero"/></clipPath><clipPath id="6bd4bafea5"><path d="M 249 313 L 292 313 L 292 345.941406 L 249 345.941406 Z M 249 313 " clip-rule="nonzero"/></clipPath><clipPath id="ff97ef5571"><path d="M 52 34.691406 L 322 34.691406 L 322 304 L 52 304 Z M 52 34.691406 " clip-rule="nonzero"/></clipPath><clipPath id="eac1efe7fc"><path d="M 20.539062 113 L 44 113 L 44 188 L 20.539062 188 Z M 20.539062 113 " clip-rule="nonzero"/></clipPath><clipPath id="0374b1eb04"><path d="M 330 113 L 352.789062 113 L 352.789062 188 L 330 188 Z M 330 113 " clip-rule="nonzero"/></clipPath></defs><rect x="-37.5" width="450" fill="#ffffff" y="-37.499999" height="449.999989" fill-opacity="1"/><rect x="-37.5" width="450" fill="#ffffff" y="-37.499999" height="449.999989" fill-opacity="1"/><rect x="-37.5" width="450" fill="#ffffff" y="-37.499999" height="449.999989" fill-opacity="1"/><g clip-path="url(#f8dab7e527)"><path fill="#f59a2e" d="M 82.316406 313.859375 L 82.316406 331.816406 C 82.316406 339.445312 88.5 345.628906 96.125 345.628906 L 109.929688 345.628906 C 117.554688 345.628906 123.734375 339.445312 123.734375 331.816406 L 123.734375 313.859375 Z M 82.316406 313.859375 " fill-opacity="1" fill-rule="nonzero"/></g><g clip-path="url(#6bd4bafea5)"><path fill="#f59a2e" d="M 249.71875 313.859375 L 249.71875 331.816406 C 249.71875 339.445312 255.902344 345.628906 263.527344 345.628906 L 277.332031 345.628906 C 284.957031 345.628906 291.136719 339.445312 291.136719 331.816406 L 291.136719 313.859375 Z M 249.71875 313.859375 " fill-opacity="1" fill-rule="nonzero"/></g><g clip-path="url(#ff97ef5571)"><path fill="#f59a2e" d="M 272.398438 34.875 L 101.058594 34.875 C 74.027344 34.875 52.117188 56.796875 52.117188 83.84375 L 52.117188 285.816406 C 52.117188 295.703125 60.140625 303.730469 70.023438 303.730469 L 303.433594 303.730469 C 313.320312 303.730469 321.339844 295.703125 321.339844 285.816406 L 321.339844 83.84375 C 321.339844 56.796875 299.429688 34.875 272.398438 34.875 Z M 95.835938 270.117188 C 85.414062 270.117188 76.96875 261.667969 76.96875 251.242188 C 76.96875 240.816406 85.414062 232.363281 95.835938 232.363281 C 106.257812 232.363281 114.703125 240.816406 114.703125 251.242188 C 114.703125 261.667969 106.257812 270.117188 95.835938 270.117188 Z M 245.324219 269.265625 L 134.871094 269.265625 C 131.273438 269.265625 128.359375 266.351562 128.359375 262.753906 C 128.359375 259.152344 131.273438 256.238281 134.871094 256.238281 L 245.324219 256.238281 C 248.921875 256.238281 251.835938 259.152344 251.835938 262.753906 C 251.835938 266.351562 248.921875 269.265625 245.324219 269.265625 Z M 245.324219 246.246094 L 134.871094 246.246094 C 131.273438 246.246094 128.359375 243.332031 128.359375 239.730469 C 128.359375 236.132812 131.273438 233.214844 134.871094 233.214844 L 245.324219 233.214844 C 248.921875 233.214844 251.835938 236.132812 251.835938 239.730469 C 251.835938 243.332031 248.921875 246.246094 245.324219 246.246094 Z M 277.621094 270.117188 C 267.199219 270.117188 258.753906 261.667969 258.753906 251.242188 C 258.753906 240.816406 267.199219 232.363281 277.621094 232.363281 C 288.042969 232.363281 296.488281 240.816406 296.488281 251.242188 C 296.488281 261.667969 288.042969 270.117188 277.621094 270.117188 Z M 296.488281 164.113281 C 296.488281 182.476562 281.613281 197.359375 263.257812 197.359375 L 110.199219 197.359375 C 91.84375 197.359375 76.96875 182.476562 76.96875 164.113281 L 76.96875 91.578125 C 76.96875 73.214844 91.84375 58.332031 110.199219 58.332031 L 263.257812 58.332031 C 281.613281 58.332031 296.488281 73.214844 296.488281 91.578125 Z M 296.488281 164.113281 " fill-opacity="1" fill-rule="nonzero"/></g><path fill="#f59a2e" d="M 215.914062 187.242188 C 216.28125 177.015625 224.660156 168.832031 234.96875 168.832031 C 245.277344 168.832031 253.65625 177.015625 254.019531 187.242188 L 267.855469 187.242188 C 267.488281 169.378906 252.910156 155.011719 234.96875 155.011719 C 217.027344 155.011719 202.449219 169.378906 202.082031 187.242188 Z M 215.914062 187.242188 " fill-opacity="1" fill-rule="nonzero"/><g clip-path="url(#eac1efe7fc)"><path fill="#f59a2e" d="M 43.140625 175.960938 C 43.140625 182.191406 38.09375 187.242188 31.867188 187.242188 C 25.640625 187.242188 20.59375 182.191406 20.59375 175.960938 L 20.59375 124.851562 C 20.59375 118.621094 25.640625 113.570312 31.867188 113.570312 C 38.09375 113.570312 43.140625 118.621094 43.140625 124.851562 Z M 43.140625 175.960938 " fill-opacity="1" fill-rule="nonzero"/></g><g clip-path="url(#0374b1eb04)"><path fill="#f59a2e" d="M 352.867188 175.960938 C 352.867188 182.191406 347.816406 187.242188 341.589844 187.242188 C 335.363281 187.242188 330.316406 182.191406 330.316406 175.960938 L 330.316406 124.851562 C 330.316406 118.621094 335.363281 113.570312 341.589844 113.570312 C 347.816406 113.570312 352.867188 118.621094 352.867188 124.851562 Z M 352.867188 175.960938 " fill-opacity="1" fill-rule="nonzero"/></g><g fill="#f59a2e" fill-opacity="1"><g transform="translate(135.93261, 150.20352)"><g/></g></g><g fill="#f59a2e" fill-opacity="1"><g transform="translate(149.138186, 150.20352)"><g/></g></g><g fill="#f59a2e" fill-opacity="1"><g transform="translate(162.343761, 150.20352)"><g/></g></g><g fill="#f59a2e" fill-opacity="1"><g transform="translate(175.549335, 150.20352)"><g/></g></g><g fill="#f59a2e" fill-opacity="1"><g transform="translate(188.754912, 150.20352)"><g/></g></g><g fill="#000000" fill-opacity="1"><g transform="translate(138.695252, 148.672161)"><g/></g></g><g fill="#000000" fill-opacity="1"><g transform="translate(151.900828, 148.672161)"><g/></g></g><g fill="#000000" fill-opacity="1"><g transform="translate(165.106403, 148.672161)"><g/></g></g><g fill="#000000" fill-opacity="1"><g transform="translate(178.311977, 148.672161)"><g/></g></g><g fill="#000000" fill-opacity="1"><g transform="translate(191.517554, 148.672161)"><g/></g></g><g fill="#f59a2e" fill-opacity="1"><g transform="translate(201.956044, 150.20352)"><g><path d="M 4.484375 -76.375 L 36.875 -76.375 C 53.40625 -76.375 61.671875 -69.984375 61.671875 -57.203125 C 61.671875 -50.160156 58.148438 -44.800781 51.109375 -41.125 C 55.628906 -39.96875 59.171875 -37.859375 61.734375 -34.796875 C 64.296875 -31.734375 65.578125 -27.753906 65.578125 -22.859375 C 65.578125 -15.429688 63.066406 -9.765625 58.046875 -5.859375 C 53.035156 -1.953125 45.75 0 36.1875 0 L 3.90625 0 L 3.90625 -9.296875 L 7.703125 -9.640625 C 9.921875 -9.878906 11.03125 -10.953125 11.03125 -12.859375 L 11.03125 -66.28125 L 4.484375 -66.625 Z M 25.046875 -34.796875 L 25.046875 -10.796875 L 35.84375 -10.796875 C 45.789062 -10.796875 50.765625 -14.851562 50.765625 -22.96875 C 50.765625 -26.800781 49.519531 -29.726562 47.03125 -31.75 C 44.539062 -33.78125 41 -34.796875 36.40625 -34.796875 Z M 25.046875 -65.8125 L 25.046875 -45.03125 L 33.53125 -45.03125 C 38.28125 -45.03125 41.785156 -46.003906 44.046875 -47.953125 C 46.304688 -49.898438 47.4375 -52.632812 47.4375 -56.15625 C 47.4375 -59.6875 46.304688 -62.175781 44.046875 -63.625 C 41.785156 -65.082031 38.550781 -65.8125 34.34375 -65.8125 Z M 25.046875 -65.8125 "/></g></g></g><g fill="#000000" fill-opacity="1"><g transform="translate(204.718686, 148.672161)"><g><path d="M 4.484375 -76.375 L 36.875 -76.375 C 53.40625 -76.375 61.671875 -69.984375 61.671875 -57.203125 C 61.671875 -50.160156 58.148438 -44.800781 51.109375 -41.125 C 55.628906 -39.96875 59.171875 -37.859375 61.734375 -34.796875 C 64.296875 -31.734375 65.578125 -27.753906 65.578125 -22.859375 C 65.578125 -15.429688 63.066406 -9.765625 58.046875 -5.859375 C 53.035156 -1.953125 45.75 0 36.1875 0 L 3.90625 0 L 3.90625 -9.296875 L 7.703125 -9.640625 C 9.921875 -9.878906 11.03125 -10.953125 11.03125 -12.859375 L 11.03125 -66.28125 L 4.484375 -66.625 Z M 25.046875 -34.796875 L 25.046875 -10.796875 L 35.84375 -10.796875 C 45.789062 -10.796875 50.765625 -14.851562 50.765625 -22.96875 C 50.765625 -26.800781 49.519531 -29.726562 47.03125 -31.75 C 44.539062 -33.78125 41 -34.796875 36.40625 -34.796875 Z M 25.046875 -65.8125 L 25.046875 -45.03125 L 33.53125 -45.03125 C 38.28125 -45.03125 41.785156 -46.003906 44.046875 -47.953125 C 46.304688 -49.898438 47.4375 -52.632812 47.4375 -56.15625 C 47.4375 -59.6875 46.304688 -62.175781 44.046875 -63.625 C 41.785156 -65.082031 38.550781 -65.8125 34.34375 -65.8125 Z M 25.046875 -65.8125 "/></g></g></g><g fill="#f59a2e" fill-opacity="1"><g transform="translate(101.502848, 187.649767)"><g><path d="M 40.484375 -15.125 C 53.921875 -15.125 60.640625 -20.5 60.640625 -31.25 C 60.640625 -36.84375 57.675781 -40.988281 51.75 -43.6875 C 48.613281 -45.25 44.550781 -46.703125 39.5625 -48.046875 C 34.582031 -49.390625 30.4375 -50.757812 27.125 -52.15625 C 23.820312 -53.5625 20.492188 -55.492188 17.140625 -57.953125 C 10.523438 -62.890625 7.21875 -70.476562 7.21875 -80.71875 C 7.21875 -90.96875 10.773438 -99.03125 17.890625 -104.90625 C 25.003906 -110.789062 34.300781 -113.734375 45.78125 -113.734375 C 57.257812 -113.734375 67.925781 -111.4375 77.78125 -106.84375 L 77.78125 -81.640625 L 60.640625 -80.46875 L 60.640625 -90.21875 C 60.640625 -91.894531 60.414062 -93.125 59.96875 -93.90625 C 58.738281 -96.039062 54.789062 -97.109375 48.125 -97.109375 C 41.46875 -97.109375 36.539062 -95.929688 33.34375 -93.578125 C 30.15625 -91.222656 28.5625 -87.582031 28.5625 -82.65625 C 28.5625 -79.070312 29.90625 -75.9375 32.59375 -73.25 C 34.382812 -71.457031 37.039062 -69.972656 40.5625 -68.796875 C 44.09375 -67.617188 47.847656 -66.414062 51.828125 -65.1875 C 55.804688 -63.957031 59.332031 -62.613281 62.40625 -61.15625 C 65.488281 -59.695312 68.710938 -57.679688 72.078125 -55.109375 C 78.898438 -50.066406 82.3125 -42.28125 82.3125 -31.75 C 82.3125 -21.21875 78.53125 -12.925781 70.96875 -6.875 C 63.414062 -0.832031 53.453125 2.1875 41.078125 2.1875 C 28.703125 2.1875 17.585938 -0.109375 7.734375 -4.703125 L 7.734375 -31.25 L 24.859375 -32.421875 L 24.859375 -22.171875 C 24.859375 -20.492188 25.082031 -19.257812 25.53125 -18.46875 C 25.976562 -17.6875 27.347656 -16.929688 29.640625 -16.203125 C 31.941406 -15.484375 35.554688 -15.125 40.484375 -15.125 Z M 40.484375 -15.125 "/></g></g></g><g fill="#000000" fill-opacity="1"><g transform="translate(105.543447, 185.410029)"><g><path d="M 40.484375 -15.125 C 53.921875 -15.125 60.640625 -20.5 60.640625 -31.25 C 60.640625 -36.84375 57.675781 -40.988281 51.75 -43.6875 C 48.613281 -45.25 44.550781 -46.703125 39.5625 -48.046875 C 34.582031 -49.390625 30.4375 -50.757812 27.125 -52.15625 C 23.820312 -53.5625 20.492188 -55.492188 17.140625 -57.953125 C 10.523438 -62.890625 7.21875 -70.476562 7.21875 -80.71875 C 7.21875 -90.96875 10.773438 -99.03125 17.890625 -104.90625 C 25.003906 -110.789062 34.300781 -113.734375 45.78125 -113.734375 C 57.257812 -113.734375 67.925781 -111.4375 77.78125 -106.84375 L 77.78125 -81.640625 L 60.640625 -80.46875 L 60.640625 -90.21875 C 60.640625 -91.894531 60.414062 -93.125 59.96875 -93.90625 C 58.738281 -96.039062 54.789062 -97.109375 48.125 -97.109375 C 41.46875 -97.109375 36.539062 -95.929688 33.34375 -93.578125 C 30.15625 -91.222656 28.5625 -87.582031 28.5625 -82.65625 C 28.5625 -79.070312 29.90625 -75.9375 32.59375 -73.25 C 34.382812 -71.457031 37.039062 -69.972656 40.5625 -68.796875 C 44.09375 -67.617188 47.847656 -66.414062 51.828125 -65.1875 C 55.804688 -63.957031 59.332031 -62.613281 62.40625 -61.15625 C 65.488281 -59.695312 68.710938 -57.679688 72.078125 -55.109375 C 78.898438 -50.066406 82.3125 -42.28125 82.3125 -31.75 C 82.3125 -21.21875 78.53125 -12.925781 70.96875 -6.875 C 63.414062 -0.832031 53.453125 2.1875 41.078125 2.1875 C 28.703125 2.1875 17.585938 -0.109375 7.734375 -4.703125 L 7.734375 -31.25 L 24.859375 -32.421875 L 24.859375 -22.171875 C 24.859375 -20.492188 25.082031 -19.257812 25.53125 -18.46875 C 25.976562 -17.6875 27.347656 -16.929688 29.640625 -16.203125 C 31.941406 -15.484375 35.554688 -15.125 40.484375 -15.125 Z M 40.484375 -15.125 "/></g></g></g><g fill="#f59a2e" fill-opacity="1"><g transform="translate(174.909097, 187.649767)"><g/></g></g><g fill="#000000" fill-opacity="1"><g transform="translate(178.949696, 185.410029)"><g/></g></g></svg>